<?xml version="1.0" standalone="no"?>
<!DOCTYPE svg PUBLIC "-//W3C//DTD SVG 20010904//EN"
 "http://www.w3.org/TR/2001/REC-SVG-20010904/DTD/svg10.dtd">
<svg version="1.0" xmlns="http://www.w3.org/2000/svg"
 width="960.000000pt" height="682.000000pt" viewBox="0 0 960.000000 682.000000"
 preserveAspectRatio="xMidYMid meet">

<g transform="translate(0.000000,682.000000) scale(0.100000,-0.100000)"
fill="#000000" stroke="none">
<path d="M2243 2124 c-10 -28 7 -302 27 -418 123 -717 640 -1229 1537 -1520
246 -80 596 -156 795 -172 l79 -7 -7 59 c-10 94 -42 279 -70 404 -103 457
-302 880 -547 1160 -213 243 -497 410 -807 474 -134 27 -289 36 -648 36 -314
0 -353 -2 -359 -16z"/>
<path d="M6520 2129 c-743 -72 -1264 -624 -1510 -1598 -30 -119 -70 -340 -85
-465 l-7 -59 79 7 c44 3 144 18 224 31 781 137 1415 455 1762 885 168 208 283
454 336 715 23 115 44 342 39 430 l-3 60 -375 1 c-206 1 -413 -2 -460 -7z"/>
</g>
</svg>
